<?xml version="1.0" encoding="iso-8859-1"?>
<!-- Uploaded to: SVG Repo, www.svgrepo.com, Generator: SVG Repo Mixer Tools -->
<svg fill="#ffffff" height="800px" width="800px" version="1.1" id="Layer_1" xmlns="http://www.w3.org/2000/svg" xmlns:xlink="http://www.w3.org/1999/xlink" 
	 viewBox="0 0 512 512" xml:space="preserve">
<g>
	<g>
		<path d="M437.02,74.98C388.667,26.628,324.38,0,256,0S123.333,26.628,74.98,74.98C26.628,123.333,0,187.62,0,256
			c0,41.589,10.178,82.76,29.468,119.331L1.393,498.393c-0.779,3.42,0.252,7,2.732,9.48c2.48,2.481,6.062,3.513,9.48,2.732
			l123.064-28.073C173.24,501.822,214.411,512,256,512c68.38,0,132.667-26.628,181.02-74.98C485.372,388.667,512,324.38,512,256
			S485.372,123.333,437.02,74.98z M256,491.602c-39.484,0-78.549-9.963-112.972-28.809c-1.513-0.828-3.198-1.253-4.899-1.253
			c-0.758,0-1.519,0.085-2.267,0.255l-110.97,25.314l25.314-110.97c0.554-2.43,0.2-4.979-0.997-7.166
			C30.361,334.549,20.398,295.484,20.398,256c0-129.911,105.69-235.602,235.602-235.602S491.602,126.089,491.602,256
			S385.911,491.602,256,491.602z"/>
	</g>
</g>
<g>
	<g>
		<path d="M446.972,349.053c-4.935-2.711-11.137-0.909-13.85,4.029c-19.703,35.868-49.395,64.61-85.865,83.117
			c-5.023,2.55-7.028,8.688-4.479,13.711c1.798,3.545,5.383,5.586,9.103,5.586c1.552,0,3.129-0.356,4.607-1.107
			c40.144-20.372,72.826-52.008,94.513-91.487C453.713,357.967,451.909,351.765,446.972,349.053z"/>
	</g>
</g>
<g>
	<g>
		<path d="M321.934,457.958c-1.485-5.432-7.094-8.63-12.529-7.148c-5.736,1.569-11.614,2.897-17.47,3.948
			c-5.544,0.994-9.232,6.296-8.237,11.84c0.886,4.935,5.183,8.399,10.027,8.399c0.599,0,1.205-0.053,1.814-0.161
			c6.452-1.159,12.927-2.622,19.247-4.35C320.219,469,323.42,463.391,321.934,457.958z"/>
	</g>
</g>
<g>
	<g>
		<path d="M409.227,209.925c-14.244-15.369-32.947-25.485-53.356-29.007c-7.25-48.895-49.58-86.066-99.871-86.066
			s-92.621,37.171-99.871,86.066c-20.408,3.522-39.111,13.637-53.356,29.007c-16.289,17.574-25.259,40.457-25.259,64.433
			c0,52.302,42.551,94.853,94.853,94.853h167.267c52.302,0,94.853-42.551,94.853-94.853
			C434.486,250.382,425.516,227.499,409.227,209.925z M339.633,348.813H172.367c-41.054,0-74.454-33.4-74.454-74.454
			c0-38.481,30.015-71.064,68.333-74.181c5.05-0.41,9.032-4.465,9.352-9.522c2.673-42.283,37.99-75.405,80.403-75.405
			s77.73,33.122,80.404,75.406c0.319,5.056,4.302,9.111,9.352,9.522c38.316,3.116,68.332,35.699,68.332,74.18
			C414.088,315.412,380.687,348.813,339.633,348.813z"/>
	</g>
</g>
</svg>